<?xml version="1.0" encoding="utf-8"?>
<!-- Generator: Adobe Illustrator 25.2.1, SVG Export Plug-In . SVG Version: 6.00 Build 0)  -->
<svg version="1.1" xmlns="http://www.w3.org/2000/svg" xmlns:xlink="http://www.w3.org/1999/xlink" x="0px" y="0px"
	 viewBox="0 0 242.94 164.08" style="enable-background:new 0 0 242.94 164.08;" xml:space="preserve">
<style type="text/css">
	.st0{fill:#414140;}
	.st1{fill:none;stroke:#414140;stroke-miterlimit:10;}
</style>
<g id="FONDO">
</g>
<g id="IMAGOTIPO_HORIZONTAL">
	<g>
		<g>
			<path class="st0" d="M177.59,140.87c-5.86,0-8.48-3.65-8.48-9.51v-22.64h5.23v22.55c-0.05,2.53,0.77,4.73,3.56,4.73h1.53v4.87
				H177.59z"/>
			<path class="st0" d="M183.18,111.92c0-1.85,1.58-3.2,3.43-3.2c1.89,0,3.38,1.35,3.38,3.2c0,1.8-1.49,3.2-3.38,3.2
				C184.76,115.13,183.18,113.73,183.18,111.92z"/>
			<rect x="183.99" y="118.73" class="st0" width="5.23" height="22.14"/>
			<path class="st0" d="M207.55,113.59c-3.56,0-4.6,1.98-4.55,4.55v0.59h4v4.15h-4v17.99h-5.23v-17.99h-4.01v-4.15h4.01v-0.32
				c0-6.04,2.89-9.69,8.75-9.69h2.69v4.87H207.55z"/>
			<path class="st0" d="M230.88,131.63h-16.13c0.59,2.93,2.65,4.51,5.81,4.51c2.25,0,4.46-0.99,5.68-2.71l3.52,2.66
				c-1.94,3.07-5.68,4.78-9.51,4.78c-6.27,0-11.05-4.51-11.05-11.09c0-6.72,5.01-11.05,11.05-11.05c6,0,10.73,4.28,10.73,10.87
				C230.98,130.19,230.93,130.86,230.88,131.63z M225.79,127.98c-0.32-2.89-2.57-4.6-5.5-4.6c-2.8,0-5.1,1.4-5.73,4.6H225.79z"/>
		</g>
		<path class="st0" d="M12.99,132.94h1.35c0.54,3.38,3.7,6.58,8.34,6.58c6.27,0,9.06-4.19,9.06-7.39c0-3.92-3.29-5.91-7.08-6.81
			l-4.42-1.04c-6.22-1.35-7.26-4.92-7.26-7.35c0-4.78,4.87-8.21,9.65-8.21c5.01,0,8.93,2.89,9.33,7.58h-1.35
			c-0.41-3.83-3.74-6.22-7.98-6.22c-4.1,0-8.29,2.89-8.29,6.85c0,2.03,0.89,4.82,6.17,6.04l4.42,1.04c4.37,1.04,8.16,3.34,8.16,8.03
			c0,3.74-3.16,8.84-10.42,8.84C17.19,140.87,13.53,136.95,12.99,132.94z"/>
		<path class="st0" d="M48.74,118.73v1.22h-5.23v20.92h-1.35v-20.92h-5.23l0-1.22h5.23v-10.01h1.35v10.01H48.74z"/>
		<path class="st0" d="M69.02,118.73h1.35v22.14h-1.35v-5.14c-1.22,3.7-4.69,5.14-7.8,5.14c-4.87,0-8.61-3.52-8.61-9.2v-12.94h1.35
			v12.94c0,4.82,3.16,7.85,7.26,7.85c3.97,0,7.62-2.3,7.8-8.21V118.73z"/>
		<path class="st0" d="M97.19,108.72h1.35v32.15h-1.35l0-5.73c-1.85,3.38-5.46,5.73-9.65,5.73c-6.04,0-10.96-5.01-10.96-11.09
			c0-6.04,4.91-11.05,10.96-11.05c4.19,0,7.8,2.34,9.65,5.73L97.19,108.72z M97.2,130.01c0-5.77-4.37-9.92-9.65-9.92
			c-5.28,0-9.6,4.42-9.6,9.69c0,5.32,4.33,9.74,9.6,9.74C92.82,139.52,97.2,135.46,97.2,130.01z"/>
		<path class="st0" d="M125.64,130.32h-19.52c0.36,5.46,4.06,9.2,9.24,9.2c3.34,0,6.22-1.71,7.89-4.37l1.17,0.72
			c-1.89,3.07-5.23,5.01-9.06,5.01c-5.91,0-10.6-4.46-10.6-11.14c0-6.63,4.69-11,10.6-11c5.95,0,10.28,4.37,10.28,11V130.32z
			 M124.28,129.1c-0.27-5.46-3.92-9.02-8.93-9.02c-5.05,0-8.84,3.47-9.2,9.02H124.28z"/>
		<path class="st0" d="M149.42,127.93v12.94h-1.35v-12.94c0-4.82-2.65-7.85-7.26-7.85c-3.97,0-7.62,2.3-7.8,8.21v12.58h-1.35v-22.14
			h1.35v5.14c1.22-3.7,4.69-5.14,7.8-5.14C145.68,118.73,149.42,122.25,149.42,127.93z"/>
		<path class="st0" d="M165.11,118.73v1.22h-5.04l-0.19,20.92h-1.35v-20.92h-5.23l0-1.22h5.23v-10.01h1.35v10.01H165.11z"/>
		<g>
			<rect x="81.78" y="12.49" class="st1" width="80.26" height="80.26"/>
			<path class="st0" d="M95.42,79.11l6.97-5.88l-6.97-5.88h34.61c2.46,0,4.45-1.99,4.45-4.45s-1.99-4.45-4.45-4.45h-17.05
				c-2.39,0-4.61-0.32-6.66-0.97c-2.05-0.65-3.84-1.6-5.38-2.86c-0.7-0.58-1.34-1.22-1.92-1.93l-0.16-0.17
				c-0.63-0.8-1.2-1.67-1.69-2.62c-0.98-1.88-1.56-4.03-1.76-6.46v-2.24c0.29-2.42,0.91-4.57,1.87-6.46
				c0.95-1.88,2.18-3.45,3.7-4.72c1.51-1.26,3.28-2.23,5.3-2.9c2.02-0.67,4.26-1.01,6.69-1.01h28.44l6.97,5.88l-6.97,5.88h-27.64
				c-2.46,0-4.45,1.99-4.45,4.45c0,2.46,1.99,4.45,4.45,4.45h17.05c2.39,0,4.61,0.32,6.66,0.97c2.05,0.65,3.84,1.6,5.38,2.86
				c0.7,0.58,1.34,1.22,1.92,1.93l0.16,0.17c0.63,0.8,1.2,1.67,1.69,2.62c0.98,1.88,1.56,4.03,1.76,6.46v2.24
				c-0.29,2.42-0.91,4.57-1.87,6.46c-0.95,1.88-2.18,3.45-3.7,4.72c-1.51,1.26-3.28,2.23-5.3,2.9c-2.02,0.67-4.26,1.01-6.69,1.01
				H95.42z"/>
		</g>
		<g>
			<path class="st0" d="M82.74,149.54h0.31c0.12,0.76,0.83,1.48,1.88,1.48c1.41,0,2.04-0.95,2.04-1.67c0-0.88-0.74-1.33-1.6-1.54
				l-1-0.23c-1.4-0.31-1.59-1.11-1.59-1.66c0-1.08,1.05-1.85,2.13-1.85c1.13,0,2.01,0.65,2.1,1.71h-0.31
				c-0.09-0.86-0.84-1.4-1.8-1.4c-0.93,0-1.82,0.65-1.82,1.55c0,0.46,0.15,1.09,1.34,1.36l1,0.23c0.99,0.23,1.84,0.75,1.84,1.81
				c0,0.84-0.71,1.99-2.35,1.99C83.68,151.33,82.86,150.45,82.74,149.54z"/>
			<path class="st0" d="M93.2,148.42v2.92h-0.31v-2.92c0-1.09-0.71-1.77-1.64-1.77c-0.89,0-1.72,0.52-1.76,1.85v2.84h-0.31v-7.25
				h0.31v3.42c0.27-0.83,1.06-1.16,1.76-1.16C92.35,146.34,93.2,147.13,93.2,148.42z"/>
			<path class="st0" d="M99.69,146.34H100v4.99h-0.31v-1.29c-0.42,0.76-1.23,1.29-2.18,1.29c-1.36,0-2.47-1.13-2.47-2.5
				c0-1.36,1.11-2.49,2.47-2.49c0.95,0,1.76,0.53,2.18,1.29V146.34z M99.69,148.88c0-1.3-0.99-2.24-2.18-2.24s-2.17,1-2.17,2.19
				c0,1.2,0.98,2.2,2.17,2.2S99.69,150.11,99.69,148.88z"/>
			<path class="st0" d="M104.93,146.43l-0.09,0.29c-0.22-0.07-0.42-0.08-0.57-0.08c-1.39,0-1.68,1.65-1.7,2.69v1.99h-0.31v-4.99
				h0.31v1.45c0.2-0.77,0.79-1.45,1.7-1.45C104.46,146.34,104.68,146.35,104.93,146.43z"/>
			<path class="st0" d="M110.37,148.95h-4.4c0.08,1.23,0.92,2.07,2.08,2.07c0.75,0,1.4-0.39,1.78-0.99l0.26,0.16
				c-0.43,0.69-1.18,1.13-2.04,1.13c-1.33,0-2.39-1.01-2.39-2.51c0-1.49,1.06-2.48,2.39-2.48c1.34,0,2.32,0.99,2.32,2.48V148.95z
				 M110.07,148.68c-0.06-1.23-0.88-2.03-2.01-2.03c-1.14,0-1.99,0.78-2.07,2.03H110.07z"/>
			<path class="st0" d="M119.17,146.34h0.34l-3.1,7.24h-0.34l0.95-2.25l-2.12-4.99h0.34l1.95,4.63L119.17,146.34z"/>
			<path class="st0" d="M120.59,148.82c0-1.51,1.12-2.48,2.48-2.48c1.35,0,2.48,0.98,2.48,2.48c0,1.52-1.13,2.51-2.48,2.51
				C121.7,151.33,120.59,150.34,120.59,148.82z M125.24,148.82c0-1.32-0.99-2.18-2.18-2.18c-1.2,0-2.18,0.85-2.18,2.18
				c0,1.33,0.98,2.21,2.18,2.21C124.26,151.03,125.24,150.15,125.24,148.82z"/>
			<path class="st0" d="M131.11,146.34h0.31v4.99h-0.31v-1.16c-0.27,0.83-1.06,1.16-1.76,1.16c-1.1,0-1.94-0.79-1.94-2.07v-2.92
				h0.31v2.92c0,1.09,0.71,1.77,1.64,1.77c0.89,0,1.72-0.52,1.76-1.85V146.34z"/>
			<path class="st0" d="M136.35,146.43l-0.09,0.29c-0.22-0.07-0.42-0.08-0.57-0.08c-1.39,0-1.68,1.65-1.7,2.69v1.99h-0.3v-4.99h0.3
				v1.45c0.2-0.77,0.79-1.45,1.7-1.45C135.87,146.34,136.1,146.35,136.35,146.43z"/>
			<path class="st0" d="M145.75,148.83c0,1.37-1.11,2.5-2.47,2.5c-0.95,0-1.76-0.53-2.18-1.29v1.17h-0.3v-7.33h0.3v3.75
				c0.42-0.76,1.23-1.29,2.18-1.29C144.64,146.34,145.75,147.47,145.75,148.83z M145.45,148.83c0-1.19-0.98-2.19-2.17-2.19
				c-1.19,0-2.18,0.94-2.18,2.24c0,1.23,0.99,2.15,2.18,2.15C144.47,151.03,145.45,150.03,145.45,148.83z"/>
			<path class="st0" d="M152.03,148.95h-4.4c0.08,1.23,0.91,2.07,2.08,2.07c0.75,0,1.4-0.39,1.78-0.99l0.26,0.16
				c-0.43,0.69-1.18,1.13-2.04,1.13c-1.33,0-2.39-1.01-2.39-2.51c0-1.49,1.06-2.48,2.39-2.48c1.34,0,2.32,0.99,2.32,2.48V148.95z
				 M151.73,148.68c-0.06-1.23-0.88-2.03-2.01-2.03c-1.14,0-1.99,0.78-2.07,2.03H151.73z"/>
			<path class="st0" d="M153.5,150.12h0.31c0.15,0.42,0.51,0.91,1.37,0.91c0.8,0,1.31-0.44,1.31-1.05c0-0.43-0.24-0.8-0.92-0.98
				l-0.71-0.16c-0.51-0.11-1.15-0.39-1.15-1.23c0-0.75,0.63-1.27,1.47-1.27c0.78,0,1.37,0.45,1.44,1.16h-0.31
				c-0.07-0.52-0.53-0.85-1.14-0.85c-0.68,0-1.17,0.4-1.17,0.95c0,0.64,0.52,0.86,0.92,0.96l0.7,0.16c0.85,0.2,1.16,0.72,1.16,1.27
				c0,0.79-0.63,1.35-1.62,1.35C154.4,151.33,153.66,150.94,153.5,150.12z"/>
			<path class="st0" d="M160.42,146.34v0.27h-1.18v4.6h-0.3v-4.6h-1.17l0-0.27h1.17v-2.26h0.3v2.26H160.42z"/>
			<path class="st0" d="M161.6,151.03c0-0.17,0.14-0.29,0.32-0.29c0.18,0,0.33,0.12,0.33,0.29c0,0.16-0.14,0.28-0.33,0.28
				C161.74,151.31,161.6,151.19,161.6,151.03z"/>
		</g>
	</g>
</g>
</svg>
