<?xml version="1.0" encoding="utf-8"?>
<!-- Generator: Adobe Illustrator 25.2.1, SVG Export Plug-In . SVG Version: 6.00 Build 0)  -->
<svg version="1.1" xmlns="http://www.w3.org/2000/svg" xmlns:xlink="http://www.w3.org/1999/xlink" x="0px" y="0px"
	 viewBox="0 0 436.92 129.47" style="enable-background:new 0 0 436.92 129.47;" xml:space="preserve">
<style type="text/css">
	.st0{fill:#1598CF;}
	.st1{fill:#414140;}
	.st2{fill:#2A96D6;}
	.st3{fill:#D9D9D9;}
</style>
<g id="FONDO">
</g>
<g id="IMAGOTIPO_HORIZONTAL">
	<g>
		<g>
			<path class="st0" d="M353.13,85.97c-7.69,0-11.12-4.79-11.12-12.48V43.8h6.86v29.57c-0.06,3.31,1.01,6.21,4.67,6.21h2.01v6.39
				H353.13z"/>
			<path class="st0" d="M360.46,48c0-2.42,2.07-4.2,4.5-4.2c2.48,0,4.44,1.77,4.44,4.2c0,2.37-1.95,4.2-4.44,4.2
				C362.53,52.2,360.46,50.37,360.46,48z"/>
			<rect x="361.53" y="56.93" class="st0" width="6.86" height="29.04"/>
			<path class="st0" d="M392.43,50.19c-4.67,0-6.03,2.6-5.97,5.97v0.77h5.25v5.44h-5.25v23.6h-6.86v-23.6h-5.26v-5.44h5.26v-0.41
				c0-7.93,3.79-12.72,11.47-12.72h3.53v6.39H392.43z"/>
			<path class="st0" d="M423.04,73.85h-21.16c0.77,3.84,3.48,5.91,7.62,5.91c2.96,0,5.86-1.3,7.45-3.55l4.61,3.49
				c-2.54,4.02-7.45,6.27-12.48,6.27c-8.22,0-14.49-5.92-14.49-14.55c0-8.81,6.57-14.49,14.49-14.49c7.87,0,14.08,5.62,14.08,14.26
				C423.16,71.95,423.1,72.84,423.04,73.85z M416.36,69.06c-0.41-3.79-3.37-6.03-7.22-6.03c-3.67,0-6.68,1.83-7.51,6.03H416.36z"/>
		</g>
		<path class="st1" d="M137.22,75.56H139c0.71,4.44,4.85,8.64,10.94,8.64c8.22,0,11.89-5.5,11.89-9.7c0-5.15-4.32-7.75-9.29-8.93
			l-5.8-1.36c-8.16-1.77-9.52-6.45-9.52-9.64c0-6.27,6.39-10.77,12.66-10.77c6.57,0,11.71,3.79,12.24,9.94h-1.77
			c-0.53-5.03-4.91-8.16-10.47-8.16c-5.38,0-10.87,3.79-10.87,8.99c0,2.66,1.17,6.33,8.09,7.93l5.8,1.36
			c5.74,1.36,10.71,4.38,10.71,10.53c0,4.91-4.14,11.59-13.66,11.59C142.72,85.97,137.93,80.83,137.22,75.56z"/>
		<path class="st1" d="M184.12,56.93v1.6h-6.86v27.44h-1.77V58.53h-6.86l0-1.6h6.86V43.8h1.77v13.13H184.12z"/>
		<path class="st1" d="M210.72,56.93h1.77v29.04h-1.77v-6.74c-1.6,4.85-6.15,6.74-10.23,6.74c-6.39,0-11.3-4.61-11.3-12.07V56.93
			h1.77v16.98c0,6.33,4.14,10.29,9.52,10.29c5.21,0,10-3.02,10.23-10.76V56.93z"/>
		<path class="st1" d="M247.67,43.8h1.77v42.17h-1.77l0-7.51c-2.42,4.44-7.16,7.51-12.66,7.51c-7.93,0-14.37-6.57-14.37-14.55
			c0-7.93,6.45-14.49,14.37-14.49c5.5,0,10.23,3.08,12.66,7.51L247.67,43.8z M247.67,71.72c0-7.57-5.74-13.01-12.66-13.01
			c-6.92,0-12.6,5.8-12.6,12.72c0,6.98,5.68,12.78,12.6,12.78C241.94,84.2,247.67,78.87,247.67,71.72z"/>
		<path class="st1" d="M284.98,72.13h-25.61c0.47,7.16,5.32,12.07,12.13,12.07c4.38,0,8.16-2.25,10.35-5.74l1.54,0.95
			c-2.48,4.02-6.86,6.57-11.89,6.57c-7.75,0-13.9-5.86-13.9-14.61c0-8.7,6.15-14.43,13.9-14.43c7.81,0,13.49,5.74,13.49,14.43V72.13
			z M283.21,70.53c-0.35-7.16-5.15-11.83-11.71-11.83c-6.62,0-11.59,4.55-12.07,11.83H283.21z"/>
		<path class="st1" d="M316.18,69v16.98h-1.77V69c0-6.33-3.47-10.29-9.52-10.29c-5.21,0-10,3.02-10.23,10.77v16.5h-1.77V56.93h1.77
			v6.74c1.6-4.85,6.15-6.74,10.23-6.74C311.27,56.93,316.18,61.54,316.18,69z"/>
		<path class="st1" d="M336.76,56.93v1.6h-6.61l-0.25,27.44h-1.77V58.53h-6.86l0-1.6h6.86V43.8h1.77v13.13H336.76z"/>
		<g>
			<rect x="10.81" y="11.98" class="st2" width="105.29" height="105.29"/>
			<path class="st3" d="M28.71,99.36l9.14-7.71l-9.14-7.71h45.4c3.22,0,5.83-2.61,5.83-5.83s-2.61-5.83-5.83-5.83H51.74
				c-3.13,0-6.05-0.42-8.73-1.27c-2.69-0.85-5.04-2.1-7.05-3.75c-0.92-0.76-1.76-1.6-2.52-2.53l-0.2-0.22
				c-0.83-1.05-1.57-2.19-2.22-3.44c-1.28-2.47-2.05-5.29-2.3-8.47v-2.94c0.38-3.18,1.2-6,2.45-8.47C32.4,38.72,34.02,36.66,36,35
				c1.98-1.66,4.3-2.92,6.96-3.8c2.65-0.88,5.58-1.32,8.78-1.32h37.31l9.14,7.71l-9.14,7.71H52.8c-3.22,0-5.83,2.61-5.83,5.83
				s2.61,5.83,5.83,5.83h22.36c3.13,0,6.05,0.42,8.73,1.27c2.69,0.85,5.04,2.1,7.05,3.75c0.92,0.76,1.76,1.6,2.52,2.53l0.2,0.22
				c0.83,1.05,1.57,2.19,2.22,3.44c1.28,2.47,2.05,5.29,2.3,8.47v2.94c-0.38,3.18-1.2,6-2.45,8.47c-1.25,2.47-2.86,4.53-4.85,6.19
				c-1.98,1.66-4.3,2.92-6.96,3.8c-2.65,0.88-5.58,1.32-8.78,1.32H28.71z"/>
		</g>
		<g>
			<path class="st1" d="M228.27,98.45h0.4c0.16,1.01,1.1,1.97,2.49,1.97c1.87,0,2.71-1.25,2.71-2.21c0-1.17-0.98-1.76-2.11-2.03
				l-1.32-0.31c-1.86-0.4-2.1-1.47-2.1-2.19c0-1.43,1.39-2.45,2.81-2.45c1.49,0,2.67,0.86,2.79,2.26h-0.4
				c-0.12-1.14-1.12-1.86-2.38-1.86c-1.23,0-2.41,0.86-2.41,2.05c0,0.61,0.2,1.44,1.78,1.8l1.32,0.31c1.31,0.31,2.44,1,2.44,2.4
				c0,1.12-0.94,2.64-3.11,2.64C229.53,100.82,228.44,99.65,228.27,98.45z"/>
			<path class="st1" d="M242.13,96.95v3.86h-0.4v-3.86c0-1.44-0.94-2.34-2.17-2.34c-1.19,0-2.28,0.69-2.33,2.45v3.76h-0.4v-9.6h0.4
				v4.52c0.36-1.1,1.4-1.54,2.33-1.54C241.01,94.21,242.13,95.26,242.13,96.95z"/>
			<path class="st1" d="M250.73,94.21h0.4v6.61h-0.4v-1.71c-0.55,1.01-1.63,1.71-2.88,1.71c-1.8,0-3.27-1.49-3.27-3.31
				c0-1.81,1.47-3.3,3.27-3.3c1.25,0,2.33,0.7,2.88,1.71V94.21z M250.73,97.57c0-1.72-1.31-2.96-2.88-2.96
				c-1.58,0-2.87,1.32-2.87,2.9c0,1.59,1.29,2.91,2.87,2.91C249.42,100.41,250.73,99.2,250.73,97.57z"/>
			<path class="st1" d="M257.67,94.33l-0.12,0.39c-0.3-0.09-0.55-0.11-0.75-0.11c-1.84,0-2.22,2.18-2.25,3.57v2.64h-0.4v-6.61h0.4
				v1.93c0.27-1.02,1.05-1.93,2.25-1.93C257.04,94.21,257.34,94.22,257.67,94.33z"/>
			<path class="st1" d="M264.88,97.67h-5.83c0.11,1.63,1.21,2.75,2.76,2.75c1,0,1.86-0.51,2.36-1.31l0.35,0.22
				c-0.57,0.92-1.56,1.49-2.71,1.49c-1.76,0-3.16-1.33-3.16-3.33c0-1.98,1.4-3.29,3.16-3.29c1.78,0,3.07,1.31,3.07,3.29V97.67z
				 M264.47,97.3c-0.08-1.63-1.17-2.69-2.67-2.69c-1.51,0-2.64,1.04-2.75,2.69H264.47z"/>
			<path class="st1" d="M276.52,94.21h0.44l-4.11,9.59h-0.44l1.25-2.98l-2.8-6.61h0.45l2.59,6.13L276.52,94.21z"/>
			<path class="st1" d="M278.4,97.49c0-1.99,1.48-3.29,3.29-3.29c1.79,0,3.29,1.29,3.29,3.29c0,2.01-1.49,3.33-3.29,3.33
				C279.88,100.82,278.4,99.5,278.4,97.49z M284.57,97.49c0-1.75-1.31-2.88-2.88-2.88c-1.59,0-2.88,1.13-2.88,2.88
				c0,1.76,1.29,2.92,2.88,2.92C283.26,100.41,284.57,99.26,284.57,97.49z"/>
			<path class="st1" d="M292.34,94.21h0.4v6.61h-0.4v-1.54c-0.36,1.1-1.4,1.54-2.33,1.54c-1.45,0-2.57-1.05-2.57-2.75v-3.87h0.4
				v3.87c0,1.44,0.94,2.34,2.17,2.34c1.18,0,2.28-0.69,2.33-2.45V94.21z"/>
			<path class="st1" d="M299.28,94.33l-0.12,0.39c-0.3-0.09-0.55-0.11-0.75-0.11c-1.84,0-2.22,2.18-2.25,3.57v2.64h-0.4v-6.61h0.4
				v1.93c0.27-1.02,1.05-1.93,2.25-1.93C298.65,94.21,298.94,94.22,299.28,94.33z"/>
			<path class="st1" d="M311.73,97.51c0,1.82-1.47,3.31-3.27,3.31c-1.25,0-2.33-0.7-2.88-1.71v1.55h-0.4v-9.71h0.4v4.97
				c0.55-1.01,1.63-1.71,2.88-1.71C310.26,94.21,311.73,95.7,311.73,97.51z M311.33,97.51c0-1.58-1.29-2.9-2.87-2.9
				c-1.58,0-2.88,1.24-2.88,2.96c0,1.63,1.31,2.84,2.88,2.84C310.04,100.41,311.33,99.09,311.33,97.51z"/>
			<path class="st1" d="M320.05,97.67h-5.83c0.11,1.63,1.21,2.75,2.76,2.75c1,0,1.86-0.51,2.36-1.31l0.35,0.22
				c-0.57,0.92-1.56,1.49-2.71,1.49c-1.76,0-3.16-1.33-3.16-3.33c0-1.98,1.4-3.29,3.16-3.29c1.78,0,3.07,1.31,3.07,3.29V97.67z
				 M319.65,97.3c-0.08-1.63-1.17-2.69-2.67-2.69c-1.51,0-2.64,1.04-2.75,2.69H319.65z"/>
			<path class="st1" d="M321.99,99.22h0.4c0.2,0.55,0.67,1.2,1.82,1.2c1.06,0,1.74-0.58,1.74-1.39c0-0.57-0.32-1.06-1.21-1.29
				l-0.94-0.22c-0.67-0.15-1.52-0.51-1.52-1.63c0-1,0.84-1.68,1.95-1.68c1.04,0,1.82,0.59,1.91,1.54h-0.4
				c-0.09-0.69-0.7-1.13-1.51-1.13c-0.9,0-1.55,0.53-1.55,1.25c0,0.85,0.69,1.14,1.21,1.27l0.93,0.22c1.13,0.27,1.54,0.96,1.54,1.68
				c0,1.05-0.83,1.79-2.14,1.79C323.18,100.82,322.2,100.29,321.99,99.22z"/>
			<path class="st1" d="M331.15,94.21v0.36h-1.56v6.09h-0.4v-6.09h-1.56l0-0.36h1.56v-2.99h0.4v2.99H331.15z"/>
			<path class="st1" d="M332.71,100.41c0-0.23,0.19-0.39,0.42-0.39c0.24,0,0.43,0.16,0.43,0.39c0,0.22-0.19,0.38-0.43,0.38
				C332.9,100.79,332.71,100.63,332.71,100.41z"/>
		</g>
	</g>
</g>
</svg>
