<?xml version="1.0" encoding="utf-8"?>
<!-- Generator: Adobe Illustrator 25.2.1, SVG Export Plug-In . SVG Version: 6.00 Build 0)  -->
<svg version="1.1" xmlns="http://www.w3.org/2000/svg" xmlns:xlink="http://www.w3.org/1999/xlink" x="0px" y="0px"
	 viewBox="0 0 105.29 105.29" style="enable-background:new 0 0 105.29 105.29;" xml:space="preserve">
<style type="text/css">
	.st0{fill:#2A96D6;}
	.st1{fill:#D9D9D9;}
</style>
<g id="FONDO">
	<g>
		<g>
			<rect class="st0" width="105.29" height="105.29"/>
			<path class="st1" d="M17.9,87.39l9.14-7.71l-9.14-7.71h45.4c3.22,0,5.83-2.61,5.83-5.83s-2.61-5.83-5.83-5.83H40.93
				c-3.13,0-6.05-0.42-8.73-1.27c-2.69-0.85-5.04-2.1-7.05-3.75c-0.92-0.76-1.76-1.6-2.52-2.53l-0.2-0.22
				c-0.83-1.05-1.57-2.19-2.22-3.44c-1.28-2.47-2.05-5.29-2.3-8.47v-2.94c0.38-3.18,1.2-6,2.45-8.47c1.25-2.47,2.86-4.53,4.85-6.19
				c1.98-1.66,4.3-2.92,6.96-3.8c2.65-0.88,5.58-1.32,8.78-1.32h37.31l9.14,7.71l-9.14,7.71H41.99c-3.22,0-5.83,2.61-5.83,5.83
				s2.61,5.83,5.83,5.83h22.36c3.13,0,6.05,0.42,8.73,1.27c2.69,0.85,5.04,2.1,7.05,3.75c0.92,0.76,1.76,1.6,2.52,2.53l0.2,0.22
				c0.83,1.05,1.57,2.19,2.22,3.44c1.28,2.47,2.05,5.29,2.3,8.47v2.94c-0.38,3.18-1.2,6-2.45,8.47c-1.25,2.47-2.86,4.53-4.85,6.19
				c-1.98,1.66-4.3,2.92-6.96,3.8c-2.65,0.88-5.58,1.32-8.78,1.32H17.9z"/>
		</g>
	</g>
</g>
<g id="IMAGOTIPO_HORIZONTAL">
</g>
</svg>
